<?xml version="1.0" encoding="UTF-8"?>
<!DOCTYPE svg PUBLIC "-//W3C//DTD SVG 1.1//EN" "http://www.w3.org/Graphics/SVG/1.1/DTD/svg11.dtd">
<!-- Creator: CorelDRAW -->
<svg xmlns="http://www.w3.org/2000/svg" xml:space="preserve" width="16.9333mm" height="16.9333mm" version="1.1" style="shape-rendering:geometricPrecision; text-rendering:geometricPrecision; image-rendering:optimizeQuality; fill-rule:evenodd; clip-rule:evenodd"
viewBox="0 0 26.31 26.31"
 xmlns:xlink="http://www.w3.org/1999/xlink"
 xmlns:xodm="http://www.corel.com/coreldraw/odm/2003">
 <defs>
  <style type="text/css">
   <![CDATA[
    .fil0 {fill:none}
    .fil1 {fill:gray}
   ]]>
  </style>
 </defs>
 <g id="Слой_x0020_1">
  <metadata id="CorelCorpID_0Corel-Layer"/>
  <rect class="fil0" x="0" y="-0" width="26.31" height="26.31"/>
  <g id="_2660182769008">
   <path class="fil1" d="M18.39 6.15c0.5,0.53 1.06,1.67 1.2,1.76 0.06,0.19 0.36,0.7 0.49,0.82 0.52,-0.38 1.06,-0.39 1.68,-0.24 0.25,0.17 0.42,0.2 0.62,0.43 0.82,0.9 2.19,3.57 3,4.9 0.14,0.24 0.26,0.45 0.35,0.67 0.14,0.73 0.02,0.84 -0.23,1.5 -0.34,0.33 -0.41,0.39 -0.83,0.65 -2.44,1.47 -4.89,2.99 -7.33,4.43 -0.49,0.29 -1,0.71 -1.83,0.49 -0.77,-0.2 -0.86,-0.62 -1.25,-1.12 -0.13,-0.34 -2.24,-3.69 -2.24,-3.69 -0.43,-0.79 -1.02,-1.41 -0.7,-2.22l0.12 -0.2c0.22,-0.46 0.4,-0.58 0.84,-0.89 -0.04,-0.18 -0.54,-0.95 -0.65,-1.12 -0.24,-0.38 -0.59,-0.95 -0.76,-1.37 -0.1,-0.26 -0.15,-0.4 -0.22,-0.67l2.3 -0.18c0.12,0.15 1,1.77 1.3,2.14 1.23,-0.57 2.62,-1.63 3.85,-2.31 -0.08,-0.24 -0.66,-1.14 -0.83,-1.4 -0.26,-0.58 -0.78,-1.21 -1.34,-1.42 -1.04,-0.3 -1.56,-0.22 -2.33,0.34 -0.27,0.2 -2.28,0.22 -2.83,0.29 0.07,-0.29 0.16,-0.44 0.28,-0.68 0.23,-0.4 0.48,-0.78 0.81,-1.1 0.72,-0.71 1.76,-1.12 2.74,-1.27 1.43,-0.15 2.81,0.41 3.79,1.45z"/>
   <path class="fil1" d="M2.26 11.54c-0.18,1.01 1.44,2.68 2.44,2.24 0.46,-0.1 1.4,-1.17 1.77,-1.54 0.36,-0.36 1.41,-1.28 1.51,-1.75l1.77 -0.15c-0.06,0.55 -0.27,1.21 -0.61,1.65 -0.18,0.23 -0.32,0.35 -0.5,0.53 -0.53,0.53 -2.1,2.19 -2.61,2.53 -0.22,0.15 -0.38,0.21 -0.61,0.33 -0.67,0.13 -0.81,0.18 -1.52,0.17 -0.53,-0.11 -0.92,-0.22 -1.37,-0.55 -0.3,-0.22 -0.43,-0.37 -0.67,-0.62 -0.77,-0.77 -1.26,-1.34 -1.32,-2.47 -0.06,-1.14 0.47,-1.85 1.11,-2.53l1.83 -1.82c0.3,-0.3 0.58,-0.62 0.95,-0.83 0.36,-0.2 0.8,-0.38 1.23,-0.4l0.54 -0c0.72,0.05 1.12,0.25 1.61,0.57 0.25,0.16 0.33,0.3 0.54,0.5 0.12,0.12 0.42,0.42 0.5,0.48 -0.42,0.07 -1.02,0.09 -1.45,0.12 -0.25,0.02 -0.49,0.04 -0.74,0.06 -0.28,0.02 -0.5,-0.03 -0.75,-0.02 -0.48,0.02 -0.73,0.26 -1.01,0.54 -0.55,0.55 -2.5,2.27 -2.62,2.96z"/>
   <path class="fil1" d="M14.35 9.54c-0.5,0.19 -2.78,0.26 -3.52,0.33 -1.55,0.15 -3.34,0.33 -4.9,0.36 -0.5,-0.25 -0.49,-0.24 -0.69,-0.67 -0.06,-0.47 0.14,-0.81 0.45,-0.96 0.33,-0.16 6.65,-0.6 7.47,-0.63 0.7,-0.03 1.15,-0.18 1.52,0.31 0.37,0.5 0.07,1.05 -0.33,1.27z"/>
  </g>
 </g>
</svg>
