<?xml version="1.0" encoding="UTF-8"?>
<!DOCTYPE svg PUBLIC "-//W3C//DTD SVG 1.1//EN" "http://www.w3.org/Graphics/SVG/1.1/DTD/svg11.dtd">
<!-- Creator: CorelDRAW -->
<svg xmlns="http://www.w3.org/2000/svg" xml:space="preserve" width="16.9333mm" height="16.9333mm" version="1.1" style="shape-rendering:geometricPrecision; text-rendering:geometricPrecision; image-rendering:optimizeQuality; fill-rule:evenodd; clip-rule:evenodd"
viewBox="0 0 32.36 32.36"
 xmlns:xlink="http://www.w3.org/1999/xlink"
 xmlns:xodm="http://www.corel.com/coreldraw/odm/2003">
 <defs>
  <style type="text/css">
   <![CDATA[
    .fil0 {fill:none}
    .fil1 {fill:gray}
    .fil2 {fill:#CCCCCC}
   ]]>
  </style>
 </defs>
 <g id="Слой_x0020_1">
  <metadata id="CorelCorpID_0Corel-Layer"/>
  <rect class="fil0" x="0" y="-0" width="32.36" height="32.36"/>
  <g id="_2659678229552">
   <path class="fil1" d="M12.2 10.77c-1.37,0.21 -2.5,1.07 -3.56,1.66 -1.18,0.66 -5.87,3.29 -6.56,3.95 -0.82,0.78 -1.57,2.15 -1.32,3.84 0.21,1.46 2.75,5.31 3.59,6.84 0.46,0.83 1.46,2.62 2.02,3.23 0.77,0.83 2.15,1.56 3.82,1.33 1.26,-0.18 2.53,-1.1 3.53,-1.67 1.26,-0.72 5.78,-3.21 6.57,-3.94 0.83,-0.78 1.57,-2.14 1.33,-3.82 -0.18,-1.28 -1.09,-2.52 -1.67,-3.53 -0.73,-1.28 -3.2,-5.78 -3.95,-6.56 -0.79,-0.82 -2.1,-1.59 -3.78,-1.33zm-2.83 14.11c-2.21,0.58 -1.28,3.75 0.81,3.21 2.11,-0.55 1.28,-3.75 -0.81,-3.21zm1.3 -5.26c-0.77,0.24 -1.42,1.08 -1.07,2.11 0.25,0.72 1.08,1.38 2.11,1.03 1.99,-0.68 1.11,-3.81 -1.04,-3.14zm5.41 1.39c-0.99,0.28 -1.45,1.14 -1.21,2.03 0.55,2.07 3.76,1.31 3.2,-0.86 -0.2,-0.76 -1.03,-1.44 -1.99,-1.17zm-10.58 -2.83c-0.8,0.21 -1.5,0.97 -1.22,2.03 0.57,2.11 3.79,1.27 3.21,-0.86 -0.21,-0.78 -1.02,-1.43 -2,-1.17zm6.71 -3.87c-2.22,0.58 -1.28,3.75 0.81,3.2 0.75,-0.2 1.46,-1.01 1.18,-2.04 -0.21,-0.77 -1.02,-1.42 -1.99,-1.17z"/>
   <path class="fil1" d="M18.37 0.71c-1.83,0.14 -3.21,1.33 -3.76,2.69 -0.29,0.72 -0.51,1.73 -0.72,2.53 -0.17,0.63 -0.7,2.01 -0.43,2.59 0.4,0.88 1.63,0.8 2.02,-0.04 0.53,-1.14 0.78,-4.01 1.6,-4.9 0.5,-0.55 1.44,-0.82 2.42,-0.55l7.69 2.06c1.07,0.28 1.57,0.48 2,1.25 0.51,0.92 0.17,1.69 -0.08,2.63 -0.23,0.85 -0.46,1.72 -0.69,2.57 -0.32,1.2 -1.05,4.14 -1.37,5.12 -0.24,0.71 -0.86,1.32 -1.71,1.47 -1.07,0.18 -1.89,-0.63 -2.71,-0.15 -0.77,0.46 -0.63,1.64 0.26,1.98 2.68,1.04 5.41,-0.04 6.27,-2.65l1.38 -5.12c0.36,-1.38 1.26,-3.93 1.1,-5.32 -0.21,-1.79 -1.46,-3.12 -2.87,-3.63l-5.11 -1.38c-1.31,-0.34 -3.99,-1.25 -5.28,-1.16z"/>
   <path class="fil1" d="M21.36 8.95c-2.1,0.63 -1.19,3.78 0.94,3.17 2.05,-0.59 1.19,-3.81 -0.94,-3.17z"/>
   <path class="fil1" d="M24.26 13.65c-2.17,0.44 -1.56,3.64 0.61,3.26 0.82,-0.14 1.5,-0.97 1.31,-1.96 -0.15,-0.79 -0.93,-1.5 -1.92,-1.3z"/>
   <path class="fil1" d="M18.69 4.19c-2.18,0.6 -1.27,3.77 0.82,3.21 0.75,-0.2 1.45,-1.02 1.18,-2.02 -0.2,-0.75 -0.98,-1.46 -2,-1.18z"/>
   <path class="fil1" d="M21.36 8.95c-2.1,0.63 -1.19,3.78 0.94,3.17 2.05,-0.59 1.19,-3.81 -0.94,-3.17z"/>
   <path class="fil2" d="M12.12 14.28c-2.13,0.64 -1.21,3.84 0.96,3.22 2.08,-0.6 1.21,-3.87 -0.96,-3.22z"/>
   <path class="fil2" d="M5.41 18.19c-2.13,0.64 -1.21,3.84 0.96,3.22 2.08,-0.6 1.21,-3.87 -0.96,-3.22z"/>
   <path class="fil2" d="M10.68 19.57c-2.15,0.65 -1.22,3.88 0.97,3.25 2.11,-0.61 1.22,-3.92 -0.97,-3.25z"/>
   <path class="fil2" d="M16.01 21c-2.15,0.65 -1.22,3.87 0.97,3.25 2.1,-0.6 1.22,-3.91 -0.97,-3.25z"/>
   <path class="fil2" d="M9.28 24.85c-2.15,0.65 -1.22,3.88 0.97,3.25 2.11,-0.61 1.22,-3.92 -0.97,-3.25z"/>
  </g>
 </g>
</svg>
