<?xml version="1.0" encoding="UTF-8"?>
<!DOCTYPE svg PUBLIC "-//W3C//DTD SVG 1.1//EN" "http://www.w3.org/Graphics/SVG/1.1/DTD/svg11.dtd">
<!-- Creator: CorelDRAW -->
<svg xmlns="http://www.w3.org/2000/svg" xml:space="preserve" width="16.9333mm" height="16.9333mm" version="1.1" style="shape-rendering:geometricPrecision; text-rendering:geometricPrecision; image-rendering:optimizeQuality; fill-rule:evenodd; clip-rule:evenodd"
viewBox="0 0 31.07 31.07"
 xmlns:xlink="http://www.w3.org/1999/xlink"
 xmlns:xodm="http://www.corel.com/coreldraw/odm/2003">
 <defs>
  <style type="text/css">
   <![CDATA[
    .fil1 {fill:none}
    .fil0 {fill:gray}
   ]]>
  </style>
 </defs>
 <g id="Слой_x0020_1">
  <metadata id="CorelCorpID_0Corel-Layer"/>
  <g id="_1411613166480">
   <path class="fil0" d="M11.71 10.34c-1.32,0.2 -2.4,1.02 -3.42,1.59 -1.13,0.63 -5.64,3.15 -6.3,3.79 -0.78,0.75 -1.51,2.06 -1.27,3.68 0.21,1.4 2.64,5.1 3.45,6.57 0.44,0.8 1.4,2.52 1.94,3.1 0.74,0.79 2.07,1.5 3.66,1.27 1.21,-0.17 2.43,-1.05 3.39,-1.6 1.21,-0.7 5.55,-3.08 6.3,-3.79 0.79,-0.74 1.51,-2.06 1.27,-3.67 -0.18,-1.23 -1.05,-2.41 -1.6,-3.39 -0.7,-1.23 -3.07,-5.55 -3.79,-6.3 -0.76,-0.79 -2.01,-1.52 -3.63,-1.28zm-2.72 13.55c-2.12,0.55 -1.23,3.6 0.78,3.08 2.03,-0.53 1.23,-3.6 -0.78,-3.08zm1.25 -5.05c-0.74,0.23 -1.36,1.04 -1.03,2.02 0.24,0.69 1.03,1.33 2.02,0.99 1.91,-0.65 1.07,-3.66 -1,-3.01zm5.19 1.33c-0.95,0.27 -1.39,1.09 -1.17,1.95 0.53,1.99 3.61,1.25 3.08,-0.83 -0.19,-0.73 -0.99,-1.38 -1.91,-1.12zm-10.16 -2.72c-0.77,0.2 -1.44,0.93 -1.17,1.94 0.55,2.03 3.64,1.22 3.09,-0.82 -0.2,-0.75 -0.98,-1.37 -1.92,-1.12zm6.45 -3.72c-2.13,0.55 -1.23,3.6 0.78,3.08 0.72,-0.19 1.4,-0.97 1.14,-1.95 -0.2,-0.74 -0.98,-1.37 -1.91,-1.12z"/>
   <path class="fil0" d="M17.64 0.68c-1.75,0.13 -3.09,1.28 -3.61,2.58 -0.28,0.69 -0.49,1.66 -0.69,2.43 -0.16,0.61 -0.67,1.93 -0.41,2.49 0.38,0.84 1.57,0.77 1.94,-0.03 0.5,-1.09 0.75,-3.85 1.53,-4.71 0.48,-0.53 1.38,-0.78 2.32,-0.52l7.38 1.98c1.03,0.27 1.51,0.46 1.92,1.2 0.49,0.88 0.16,1.63 -0.07,2.52 -0.22,0.81 -0.45,1.65 -0.66,2.46 -0.3,1.15 -1,3.98 -1.32,4.92 -0.23,0.69 -0.82,1.27 -1.64,1.41 -1.03,0.18 -1.81,-0.61 -2.6,-0.14 -0.74,0.44 -0.61,1.57 0.25,1.9 2.58,0.99 5.19,-0.04 6.02,-2.54l1.32 -4.92c0.34,-1.33 1.21,-3.78 1.05,-5.11 -0.2,-1.72 -1.4,-2.99 -2.76,-3.49l-4.91 -1.33c-1.25,-0.33 -3.83,-1.2 -5.07,-1.11z"/>
   <path class="fil0" d="M20.51 8.59c-2.01,0.61 -1.14,3.63 0.91,3.04 1.97,-0.57 1.14,-3.66 -0.91,-3.04z"/>
   <path class="fil0" d="M23.29 13.11c-2.08,0.42 -1.5,3.49 0.59,3.13 0.79,-0.14 1.44,-0.93 1.26,-1.88 -0.14,-0.76 -0.9,-1.44 -1.85,-1.25z"/>
   <path class="fil0" d="M17.94 4.03c-2.09,0.57 -1.22,3.62 0.79,3.08 0.72,-0.19 1.39,-0.98 1.13,-1.94 -0.19,-0.72 -0.94,-1.41 -1.92,-1.14z"/>
  </g>
  <rect class="fil1" x="0" y="-0" width="31.07" height="31.07"/>
 </g>
</svg>
