<?xml version="1.0" encoding="UTF-8"?>
<!DOCTYPE svg PUBLIC "-//W3C//DTD SVG 1.1//EN" "http://www.w3.org/Graphics/SVG/1.1/DTD/svg11.dtd">
<!-- Creator: CorelDRAW -->
<svg xmlns="http://www.w3.org/2000/svg" xml:space="preserve" width="16.9333mm" height="16.9333mm" version="1.1" style="shape-rendering:geometricPrecision; text-rendering:geometricPrecision; image-rendering:optimizeQuality; fill-rule:evenodd; clip-rule:evenodd"
viewBox="0 0 32.5 32.5"
 xmlns:xlink="http://www.w3.org/1999/xlink"
 xmlns:xodm="http://www.corel.com/coreldraw/odm/2003">
 <defs>
  <style type="text/css">
   <![CDATA[
    .fil1 {fill:none}
    .fil0 {fill:gray}
   ]]>
  </style>
 </defs>
 <g id="Слой_x0020_1">
  <metadata id="CorelCorpID_0Corel-Layer"/>
  <g id="_1410378625952">
   <path class="fil0" d="M16.6 4.3c-0.97,-0.65 -1.73,-0.78 -3.12,-0.73 -1.11,0.04 -2.22,0.29 -3.23,0.6 -1.52,0.47 -3.98,1.5 -4.61,3.03 1.97,-0.85 4.85,-2.64 7.6,-1.52 0.34,0.14 0.72,0.31 0.94,0.59 -2.75,-0.15 -5.79,0.61 -7.79,1.83 -0.99,0.61 -1.85,1.36 -2.42,2.42 -0.55,1.03 -0.75,2.95 -0.37,4.13 0.05,-0.06 1.36,-2.09 2.01,-2.9 0.45,-0.57 0.99,-1.05 1.51,-1.53 1.37,-1.25 4.58,-2.1 6.06,-1.87 -0.28,-0.02 -2.31,1.09 -2.62,1.29 -2.58,1.61 -4.84,3.93 -4.59,7.57 0.36,-0.32 1.06,-2.7 2.64,-4.43 0.3,-0.33 0.57,-0.56 0.87,-0.85l0.97 -0.84c0.61,-0.45 1.39,-0.96 2.19,-1.29 -0.58,0.98 -0.9,1.98 -1.09,3.28 -0.17,1.14 -0.32,3.02 -0.07,4.14 0.2,-0.34 0.29,-0.69 0.46,-1.04 0.91,-1.98 2.61,-5.53 4.27,-6.79 0.21,0.46 0.36,1.97 0.4,2.57 0.86,-0.07 1.67,-0.22 2.45,-0.48 -0.11,-0.68 -0.65,-1.76 -0.89,-2.45 1.07,0.37 1.79,0.92 2.61,1.52l1.52 1.52c1.41,1.91 2.45,3.95 2.58,6.79 0.54,-0.51 0.96,-3.17 0.99,-3.73 0.21,-3.53 -1.57,-5.77 -4.51,-7.29 -0.52,-0.27 -1.09,-0.46 -1.58,-0.72 1.2,-0.83 3.82,-1.54 5.63,-1.45 2.05,0.09 4.1,0.7 5.4,1.66 -0.46,-2.38 -2.23,-3.56 -4.5,-3.83 -2.59,-0.3 -5.02,0.39 -7.31,1.06 0.55,-1.7 2.72,-2.8 4.27,-3.48l1.94 -0.74c-4.88,-0.51 -6.07,0.79 -8.38,3.74l-0.21 0.22z"/>
   <path class="fil0" d="M1.72 32.27l28.27 0.01c-1.49,-1.23 -7.99,-2.55 -10.1,-2.83l0.31 -1.72c-3.3,0.31 -5.5,-0.45 -6.71,-0.41l-1.28 1.79c-0.2,0.27 -0.27,0.29 -0.75,0.34 -2.37,0.26 -8.41,1.7 -9.74,2.82z"/>
   <path class="fil0" d="M16.7 17.45c-0.1,0.78 -0.16,1.55 -0.29,2.34 -0.12,0.72 -0.33,1.46 -0.45,2.12 2.7,0.27 2.41,0.33 4.88,0.19 0.1,-1.05 -0.15,-3.53 -0.23,-4.65 -0.31,-0.06 -1.85,0.1 -2.96,0.02l-0.96 -0.02z"/>
   <path class="fil0" d="M14.11 26.31c0.97,0.09 5.66,0.73 6.23,0.25 0.29,-0.3 0.43,-2.75 0.49,-3.37 -2.03,0.07 -3.32,-0.03 -5.24,-0.23 -0.19,0.99 -1.14,2.5 -1.47,3.35z"/>
   <path class="fil0" d="M16.74 13.06l0.05 3.23c1.25,0.13 2.34,0.16 3.55,0.02 0.01,-0.54 -0.71,-3.3 -0.95,-3.76 -0.25,0.02 -2.4,0.44 -2.65,0.51z"/>
  </g>
  <rect class="fil1" x="0" y="-0" width="32.5" height="32.5"/>
 </g>
</svg>
