<?xml version="1.0" encoding="UTF-8"?>
<!DOCTYPE svg PUBLIC "-//W3C//DTD SVG 1.1//EN" "http://www.w3.org/Graphics/SVG/1.1/DTD/svg11.dtd">
<!-- Creator: CorelDRAW -->
<svg xmlns="http://www.w3.org/2000/svg" xml:space="preserve" width="16.9333mm" height="16.9333mm" version="1.1" style="shape-rendering:geometricPrecision; text-rendering:geometricPrecision; image-rendering:optimizeQuality; fill-rule:evenodd; clip-rule:evenodd"
viewBox="0 0 29.59 29.59"
 xmlns:xlink="http://www.w3.org/1999/xlink"
 xmlns:xodm="http://www.corel.com/coreldraw/odm/2003">
 <defs>
  <style type="text/css">
   <![CDATA[
    .fil0 {fill:none}
    .fil1 {fill:gray}
    .fil2 {fill:#CCCCCC}
   ]]>
  </style>
 </defs>
 <g id="Слой_x0020_1">
  <metadata id="CorelCorpID_0Corel-Layer"/>
  <rect class="fil0" x="0" y="-0" width="29.59" height="29.59"/>
  <g id="_2695350371888">
   <path class="fil1" d="M3.52 15.22c-0.77,0.23 -0.95,0.54 -0.77,1.46 0.62,3.16 1.37,6.42 2.04,9.59 0.1,0.46 0.23,1.61 0.53,1.82 0.28,0.2 1.75,0.11 2.22,0.11l13.92 0.01c2.71,0 2.93,0.37 3.3,-1.39l2 -9.57c0.15,-0.75 0.33,-1.4 -0.23,-1.86 -0.56,-0.46 -3.54,-0.22 -4.47,-0.22 -1.04,0 -17.98,-0.11 -18.52,0.05zm10.94 5.73c-1.03,0.4 -0.5,2.06 0.65,1.59 0.99,-0.41 0.44,-2 -0.65,-1.59z"/>
   <path class="fil1" d="M14.25 1.39c-2.61,0.33 -4.8,2.61 -4.46,5.62 0.3,2.62 2.65,4.83 5.65,4.48 2.6,-0.31 4.8,-2.68 4.44,-5.67 -0.31,-2.56 -2.69,-4.79 -5.64,-4.42z"/>
   <path class="fil1" d="M7.15 14.42l15.41 0.01c-0.37,-0.85 -2.12,-2.13 -3.13,-2.6 -0.34,-0.16 -0.68,-0.26 -1.08,-0.36 -0.7,-0.18 -0.64,-0 -1.11,0.26 -1.36,0.76 -3.4,0.8 -4.78,0.08 -0.57,-0.3 -0.67,-0.55 -2.11,0.02 -0.66,0.27 -1.82,0.93 -2.23,1.37 -0.27,0.29 -0.91,0.92 -0.97,1.23z"/>
   <path class="fil1" d="M3.52 15.22c-0.77,0.23 -0.95,0.54 -0.77,1.46 0.62,3.16 1.37,6.42 2.04,9.59 0.1,0.46 0.23,1.61 0.53,1.82 0.28,0.2 1.75,0.11 2.22,0.11l13.92 0.01c2.71,0 2.93,0.37 3.3,-1.39l2 -9.57c0.15,-0.75 0.33,-1.4 -0.23,-1.86 -0.56,-0.46 -3.54,-0.22 -4.47,-0.22 -1.04,0 -17.98,-0.11 -18.52,0.05zm10.94 5.73c-1.03,0.4 -0.5,2.06 0.65,1.59 0.99,-0.41 0.44,-2 -0.65,-1.59z"/>
   <g>
    <path class="fil2" d="M16.9 22.89c-0.16,-0.12 -0.26,-0.12 -0.45,-0.36 -0.35,-0.45 -0.31,-1.1 0.09,-1.5 0.08,-0.08 0.15,-0.12 0.22,-0.19 -0.03,-0.14 -0.33,-0.35 -0.51,-0.42 -0.44,-0.18 -0.74,-0.09 -1.14,0.06 -0.11,0.04 -0.24,0.11 -0.37,0.07 -0.24,-0.06 -0.44,-0.21 -0.72,-0.21 -0.56,-0.01 -0.96,0.33 -1.16,0.72 -0.24,0.48 -0.21,1.06 -0.07,1.6 0.13,0.48 0.36,0.89 0.64,1.23 0.56,0.69 0.88,0.25 1.3,0.18 0.37,-0.06 0.51,0.07 0.77,0.15 0.55,0.17 0.84,-0.26 1.11,-0.68 0.07,-0.12 0.28,-0.51 0.3,-0.65z"/>
    <path class="fil2" d="M14.78 20.26c0.31,0.05 0.63,-0.19 0.76,-0.35 0.18,-0.21 0.29,-0.48 0.28,-0.84 -0.22,-0.04 -0.58,0.19 -0.75,0.36 -0.17,0.19 -0.33,0.5 -0.3,0.82z"/>
   </g>
  </g>
 </g>
</svg>
