<?xml version="1.0" encoding="UTF-8"?>
<!DOCTYPE svg PUBLIC "-//W3C//DTD SVG 1.1//EN" "http://www.w3.org/Graphics/SVG/1.1/DTD/svg11.dtd">
<!-- Creator: CorelDRAW -->
<svg xmlns="http://www.w3.org/2000/svg" xml:space="preserve" width="16.9333mm" height="16.9333mm" version="1.1" style="shape-rendering:geometricPrecision; text-rendering:geometricPrecision; image-rendering:optimizeQuality; fill-rule:evenodd; clip-rule:evenodd"
viewBox="0 0 29.18 29.18"
 xmlns:xlink="http://www.w3.org/1999/xlink"
 xmlns:xodm="http://www.corel.com/coreldraw/odm/2003">
 <defs>
  <style type="text/css">
   <![CDATA[
    .fil1 {fill:none}
    .fil0 {fill:gray}
   ]]>
  </style>
 </defs>
 <g id="Слой_x0020_1">
  <metadata id="CorelCorpID_0Corel-Layer"/>
  <g id="_1411620560080">
   <path class="fil0" d="M3.47 15c-0.75,0.23 -0.94,0.53 -0.76,1.44 0.62,3.12 1.35,6.33 2.01,9.46 0.1,0.46 0.22,1.58 0.53,1.79 0.28,0.19 1.72,0.11 2.19,0.11l13.73 0c2.67,0 2.89,0.36 3.25,-1.37l1.97 -9.44c0.15,-0.74 0.33,-1.38 -0.23,-1.83 -0.55,-0.45 -3.49,-0.22 -4.41,-0.22 -1.03,0 -17.73,-0.11 -18.27,0.05zm10.79 5.65c-1.02,0.39 -0.49,2.03 0.64,1.56 0.97,-0.4 0.43,-1.98 -0.64,-1.56z"/>
   <path class="fil0" d="M14.05 1.37c-2.57,0.32 -4.73,2.58 -4.4,5.54 0.29,2.58 2.61,4.76 5.57,4.41 2.56,-0.3 4.73,-2.64 4.38,-5.6 -0.3,-2.53 -2.66,-4.72 -5.56,-4.36z"/>
   <path class="fil0" d="M7.05 14.22l15.19 0.01c-0.37,-0.84 -2.09,-2.1 -3.09,-2.56 -0.34,-0.15 -0.67,-0.26 -1.06,-0.35 -0.69,-0.17 -0.63,-0 -1.09,0.25 -1.34,0.75 -3.36,0.79 -4.72,0.08 -0.56,-0.29 -0.66,-0.55 -2.08,0.02 -0.65,0.26 -1.8,0.91 -2.2,1.35 -0.27,0.29 -0.9,0.9 -0.96,1.21z"/>
  </g>
  <rect class="fil1" x="0" y="-0" width="29.18" height="29.18"/>
 </g>
</svg>
